<?xml version="1.0" encoding="UTF-8"?>
<svg width="22px" height="24px" viewBox="0 0 22 24" version="1.1" xmlns="http://www.w3.org/2000/svg" xmlns:xlink="http://www.w3.org/1999/xlink">
    <!-- Generator: Sketch 58 (84663) - https://sketch.com -->
    <title>notification</title>
    <desc>Created with Sketch.</desc>
    <defs>
        <polygon id="path-1" points="1.03362106e-05 0.031265625 20.0008125 0.031265625 20.0008125 17.53125 1.03362106e-05 17.53125"></polygon>
    </defs>
    <g id="Developer-Test" stroke="none" stroke-width="1" fill="none" fill-rule="evenodd">
        <g id="06-Accops-User-Listing" transform="translate(-1072.000000, -23.000000)">
            <g id="notification" transform="translate(1072.000000, 23.000000)">
                <g id="Group-3" transform="translate(0.000000, 3.468750)">
                    <mask id="mask-2" fill="white">
                        <use xlink:href="#path-1"></use>
                    </mask>
                    <g id="Clip-2"></g>
                    <path d="M1.38342188,16.5312656 L18.6174375,16.5312656 L17.3534063,14.42625 C16.4684063,12.95025 16.0004063,11.2602656 16.0004063,9.53826563 L16.0004063,7.03125 C16.0004063,3.72225 13.3094063,1.03125 10.0004063,1.03125 C6.69140625,1.03125 4.00040625,3.72225 4.00040625,7.03125 L4.00040625,9.53826563 C4.00040625,11.2602656 3.53240625,12.95025 2.64642188,14.42625 L1.38342188,16.5312656 Z M19.5004219,17.53125 L0.5004375,17.53125 C0.3204375,17.53125 0.153421875,17.4342656 0.06440625,17.2772344 C-0.023578125,17.1212344 -0.0215625,16.92825 0.0714375,16.7742656 L1.78940625,13.9122656 C2.58140625,12.5912344 3.00042188,11.0792344 3.00042188,9.53826563 L3.00042188,7.03125 C3.00042188,3.17226563 6.14142187,0.031265625 10.0004063,0.031265625 C13.8594375,0.031265625 17.0004375,3.17226563 17.0004375,7.03125 L17.0004375,9.53826563 C17.0004375,11.0792344 17.4194063,12.5912344 18.2114062,13.9122656 L19.9294219,16.7742656 C20.0224219,16.92825 20.0244375,17.1212344 19.9364063,17.2772344 C19.8474375,17.4342656 19.6804219,17.53125 19.5004219,17.53125 L19.5004219,17.53125 Z" id="Fill-1" fill="#FFFFFF" mask="url(#mask-2)"></path>
                </g>
                <path d="M11.5004063,4.5 C11.2244062,4.5 11.0004375,4.27598438 11.0004375,3.99998437 L11.0004375,2.00001562 C11.0004375,1.44801562 10.5524062,0.999984375 10.0004063,0.999984375 C9.44840625,0.999984375 9.00042188,1.44801562 9.00042188,2.00001562 L9.00042188,3.99998437 C9.00042188,4.27598438 8.77640625,4.5 8.50040625,4.5 C8.22440625,4.5 8.0004375,4.27598438 8.0004375,3.99998437 L8.0004375,2.00001562 C8.0004375,0.897 8.8974375,0 10.0004063,0 C11.1034219,0 12.0004219,0.897 12.0004219,2.00001562 L12.0004219,3.99998437 C12.0004219,4.27598438 11.7764063,4.5 11.5004063,4.5" id="Fill-4" fill="#FFFFFF"></path>
                <path d="M10.0004063,24 C8.6214375,24 7.50042188,22.8789844 7.50042188,21.5000156 C7.50042188,21.0579844 7.61742187,20.625 7.8384375,20.247 C7.97840625,20.0090156 8.2824375,19.9310156 8.52342188,20.0679844 C8.76140625,20.208 8.84142187,20.514 8.7024375,20.7530156 C8.57240625,20.9739844 8.5014375,21.2390156 8.5014375,21.5000156 C8.5014375,22.3269844 9.17442188,23.0000156 10.0014375,23.0000156 C10.8284063,23.0000156 11.5014375,22.3269844 11.5014375,21.5000156 C11.5014375,21.2390156 11.4304219,20.9739844 11.3004375,20.7530156 C11.1604219,20.5149844 11.2404375,20.208 11.4794063,20.0679844 C11.7184219,19.9310156 12.0234375,20.0090156 12.1644375,20.247 C12.3854062,20.625 12.5024062,21.0579844 12.5024062,21.5000156 C12.5004375,22.8789844 11.3794219,24 10.0004063,24" id="Fill-5" fill="#FFFFFF"></path>
                <circle id="Oval-Copy-2" fill="#F67248" cx="17" cy="12" r="5"></circle>
            </g>
        </g>
    </g>
</svg>