<?xml version="1.0" encoding="UTF-8"?>
<svg width="34px" height="32px" viewBox="0 0 34 32" version="1.1" xmlns="http://www.w3.org/2000/svg" xmlns:xlink="http://www.w3.org/1999/xlink">
    <!-- Generator: Sketch 58 (84663) - https://sketch.com -->
    <title>user</title>
    <desc>Created with Sketch.</desc>
    <g id="Developer-Test" stroke="none" stroke-width="1" fill="none" fill-rule="evenodd">
        <g id="06-Accops-User-Listing" transform="translate(-82.000000, -126.000000)" fill="#3F4342">
            <path d="M106.772382,135.751236 C108.214821,134.799995 109.169292,133.166661 109.169292,131.313049 C109.169292,128.383573 106.785719,126 103.855931,126 C100.926559,126 98.5429857,128.383573 98.5429857,131.313049 C98.5429857,133.164577 99.4957897,134.797181 100.935937,135.748422 C99.584568,136.106245 98.3077023,136.714668 97.1566059,137.556812 C97.0650142,137.624021 96.9925953,137.707902 96.9396617,137.801056 C95.9941518,136.935363 94.7356253,136.40582 93.3553933,136.40582 C90.4256045,136.40582 88.0424484,138.789392 88.0424484,141.718764 C88.0424484,143.612702 89.038808,145.276983 90.5345976,146.218116 C85.633555,147.475809 82,151.930772 82,157.218501 C82,157.649888 82.3501117,158 82.7814993,158 C83.2134079,158 83.5629986,157.649888 83.5629986,157.218501 C83.5629986,151.819174 87.9560667,147.426523 93.3553933,147.426523 C98.7546157,147.426523 103.147267,151.819174 103.147267,157.218501 C103.147267,157.649888 103.497379,158 103.928766,158 C104.360258,158 104.710266,157.649888 104.710266,157.218501 C104.710266,151.930772 101.077127,147.475809 96.1760848,146.218116 C98.6610442,144.654701 99.4058652,141.398037 97.8725635,138.92652 C97.9450866,138.90172 98.015109,138.865875 98.0798171,138.818256 C99.7645212,137.585363 101.761825,136.933696 103.855931,136.933696 C109.255674,136.933696 113.648325,141.326348 113.648325,146.725987 C113.648325,147.157479 113.998333,147.507486 114.429825,147.507486 C114.861212,147.507486 115.211324,147.157479 115.211324,146.725987 C115.211324,141.47254 111.624972,137.041543 106.772382,135.751236 Z M93.3553933,145.469128 C91.2872336,145.469128 89.6050303,143.78682 89.6050303,141.718764 C89.6050303,139.651021 91.2872336,137.968818 93.3553933,137.968818 C95.4231363,137.968818 97.1053396,139.651021 97.1053396,141.718764 C97.1053396,143.78682 95.4231363,145.469128 93.3553933,145.469128 Z M103.855931,127.562999 C105.92409,127.562999 107.606294,129.245306 107.606294,131.313049 C107.606294,133.380688 105.92409,135.062999 103.855931,135.062999 C101.788188,135.062999 100.105984,133.380688 100.105984,131.313049 C100.105984,129.245306 101.788188,127.562999 103.855931,127.562999 Z" id="user"></path>
        </g>
    </g>
</svg>