<?xml version="1.0" encoding="UTF-8"?>
<svg width="25px" height="24px" viewBox="0 0 25 24" version="1.1" xmlns="http://www.w3.org/2000/svg" xmlns:xlink="http://www.w3.org/1999/xlink">
    <!-- Generator: Sketch 58 (84663) - https://sketch.com -->
    <title>edit</title>
    <desc>Created with Sketch.</desc>
    <defs>
        <polygon id="path-1" points="0 0.031245 24.06 0.031245 24.06 23.97024 0 23.97024"></polygon>
    </defs>
    <g id="Developer-Test" stroke="none" stroke-width="1" fill="none" fill-rule="evenodd">
        <g id="06-Accops-User-Listing" transform="translate(-1205.000000, -260.000000)">
            <g id="edit" transform="translate(1205.000000, 260.000000)">
                <mask id="mask-2" fill="white">
                    <use xlink:href="#path-1"></use>
                </mask>
                <g id="Clip-2"></g>
                <path d="M22.2063,15.05436 C21.8754,15.05436 21.60726,15.3225 21.60726,15.6537 L21.60726,20.97396 C21.60612,21.9663 20.80194,22.77072 19.8096,22.77162 L2.99604,22.77162 C2.0037,22.77072 1.19952,21.9663 1.19838,20.97396 L1.19838,5.35896 C1.19952,4.36662 2.0037,3.5625 2.99604,3.5613 L8.31654,3.5613 C8.6475,3.5613 8.91564,3.29298 8.91564,2.96202 C8.91564,2.6313 8.6475,2.36274 8.31654,2.36274 L2.99604,2.36274 C1.34226,2.3646 0.00186,3.705 0,5.35896 L0,20.9742 C0.00186,22.62822 1.34226,23.96838 2.99604,23.97024 L19.8096,23.97024 C21.46362,23.96838 22.80372,22.62822 22.80564,20.9742 L22.80564,15.6537 C22.80564,15.3225 22.5375,15.05436 22.2063,15.05436 Z" id="Fill-1" fill="#404443" mask="url(#mask-2)"></path>
                <path d="M22.56822,0.82104 C21.51516,-0.23202 19.80798,-0.23202 18.75492,0.82104 L8.06436,11.51154 C7.99128,11.58468 7.9383,11.67564 7.91064,11.77524 L6.50484,16.85064 C6.44694,17.05872 6.5058,17.28138 6.65838,17.43444 C6.8112,17.58702 7.03404,17.64564 7.24218,17.58822 L12.31734,16.18218 C12.41718,16.15452 12.5079,16.10154 12.58128,16.02822 L23.27154,5.33766 C24.32298,4.28388 24.32298,2.5779 23.27154,1.52412 L22.56822,0.82104 Z M9.37008,11.90088 L18.11928,3.15138 L20.94096,5.97306 L12.19146,14.72274 L9.37008,11.90088 Z M8.80638,13.03194 L11.06064,15.28662 L7.9425,16.15056 L8.80638,13.03194 Z M22.42404,4.4904 L21.7887,5.1258 L18.96654,2.30388 L19.60242,1.6683 C20.18742,1.08354 21.13572,1.08354 21.72072,1.6683 L22.42404,2.37138 C23.00814,2.9571 23.00814,3.90492 22.42404,4.4904 Z" id="Fill-3" fill="#404443" mask="url(#mask-2)"></path>
            </g>
        </g>
    </g>
</svg>