<?xml version="1.0" encoding="UTF-8"?>
<svg width="14px" height="8px" viewBox="0 0 14 8" version="1.1" xmlns="http://www.w3.org/2000/svg" xmlns:xlink="http://www.w3.org/1999/xlink">
    <!-- Generator: Sketch 58 (84663) - https://sketch.com -->
    <title>Fill 1</title>
    <desc>Created with Sketch.</desc>
    <g id="Developer-Test" stroke="none" stroke-width="1" fill="none" fill-rule="evenodd">
        <g id="06-Accops-User-Listing" transform="translate(-1266.000000, -31.000000)" fill="#FFFFFF">
            <g id="User-Info" transform="translate(1123.000000, 23.000000)">
                <path d="M156.58142,8.82461182 L155.893681,8.1375056 C155.802151,8.0459758 155.696702,8 155.577334,8 C155.458598,8 155.353149,8.0459758 155.26183,8.1375056 L149.859041,13.5392402 L144.457306,8.1375056 C144.365144,8.0459758 144.259695,8 144.140959,8 C144.021591,8 143.916142,8.0459758 143.824612,8.1375056 L143.137506,8.82461182 C143.046187,8.91593072 143,9.0213798 143,9.14095906 C143,9.26032742 143.046187,9.3657765 143.137506,9.4573063 L149.542694,15.8624944 C149.635067,15.9546569 149.740516,16 149.859041,16 C149.97862,16 150.084069,15.9546569 150.175388,15.8624944 L156.58142,9.4573063 C156.67295,9.3657765 156.718293,9.26032742 156.718293,9.14095906 C156.718293,9.0213798 156.67295,8.91593072 156.58142,8.82461182 Z" id="Fill-1"></path>
            </g>
        </g>
    </g>
</svg>