<?xml version="1.0" encoding="UTF-8"?>
<svg width="10px" height="12px" viewBox="0 0 10 12" version="1.1" xmlns="http://www.w3.org/2000/svg" xmlns:xlink="http://www.w3.org/1999/xlink">
    <!-- Generator: Sketch 58 (84663) - https://sketch.com -->
    <title>Fill 1</title>
    <desc>Created with Sketch.</desc>
    <g id="Developer-Test" stroke="none" stroke-width="1" fill="none" fill-rule="evenodd">
        <g id="06-Accops-User-Listing" transform="translate(-133.000000, -206.000000)" fill="#404443">
            <path d="M142.648926,210.376357 C142.962457,210.689765 142.962457,211.194286 142.648926,211.507816 C142.492161,211.664459 142.288987,211.742918 142.083212,211.742918 C141.877528,211.742918 141.674232,211.664459 141.517467,211.507816 L138.742895,208.730582 L138.742895,217.199184 C138.742895,217.639939 138.385344,218 137.942048,218 C137.498783,218 137.141232,217.642449 137.141232,217.199184 L137.141232,208.730582 L134.366538,211.507816 C134.052977,211.821224 133.54861,211.821224 133.235079,211.507816 C132.92164,211.194286 132.92164,210.689765 133.235079,210.376357 L137.376334,206.235102 C137.525691,206.083235 137.728957,206 137.942048,206 C138.155018,206 138.358314,206.083235 138.507793,206.235102 L142.648926,210.376357 Z" id="Fill-1"></path>
        </g>
    </g>
</svg>