<?xml version="1.0" encoding="UTF-8"?>
<svg width="24px" height="24px" viewBox="0 0 24 24" version="1.1" xmlns="http://www.w3.org/2000/svg" xmlns:xlink="http://www.w3.org/1999/xlink">
    <!-- Generator: Sketch 58 (84663) - https://sketch.com -->
    <title>user (1)</title>
    <desc>Created with Sketch.</desc>
    <defs>
        <polygon id="path-1" points="0.00350364964 0.0233576642 23.918365 0.0233576642 23.918365 23.9417226 0.00350364964 23.9417226"></polygon>
    </defs>
    <g id="Developer-Test" stroke="none" stroke-width="1" fill="none" fill-rule="evenodd">
        <g id="06-Accops-User-Listing" transform="translate(-1123.000000, -23.000000)">
            <g id="User-Info" transform="translate(1123.000000, 23.000000)">
                <g id="user-(1)">
                    <mask id="mask-2" fill="white">
                        <use xlink:href="#path-1"></use>
                    </mask>
                    <g id="Clip-2"></g>
                    <path d="M20.4155912,3.52607299 C18.1567299,1.26744526 15.1535182,0.0233576642 11.9591825,0.0233576642 C8.76484672,0.0233576642 5.76140146,1.26744526 3.50271533,3.52607299 C1.24408759,5.78475912 0,8.78820438 0,11.9825401 C0,15.1768759 1.24408759,18.1800876 3.50271533,20.4389489 C5.76140146,22.697635 8.76484672,23.9417226 11.9591825,23.9417226 C15.1535182,23.9417226 18.1567299,22.697635 20.4155912,20.4389489 C22.6742774,18.1800876 23.918365,15.1768759 23.918365,11.9825401 C23.918365,8.78820438 22.6742774,5.78475912 20.4155912,3.52607299 Z M5.19024818,20.078073 C5.58528467,16.680292 8.50662774,14.0568759 11.9591825,14.0568759 C13.7792117,14.0568759 15.4906277,14.766073 16.7780438,16.0532555 C17.865635,17.1410803 18.5515328,18.5612263 18.7281168,20.0778978 C16.8941314,21.6138978 14.5328467,22.5402628 11.9591825,22.5402628 C9.38551825,22.5402628 7.02417518,21.6141314 5.19024818,20.078073 Z M11.9591825,12.6134307 C9.95643796,12.6134307 8.32689051,10.9838832 8.32689051,8.98113869 C8.32689051,6.97821898 9.95643796,5.34884672 11.9591825,5.34884672 C13.961927,5.34884672 15.5914745,6.97821898 15.5914745,8.98113869 C15.5914745,10.9838832 13.961927,12.6134307 11.9591825,12.6134307 Z M19.9343066,18.8933139 C19.5771095,17.4535474 18.8325839,16.1260146 17.7689343,15.062365 C16.9076204,14.2010511 15.8887007,13.5548613 14.7773431,13.1499562 C16.1133431,12.2439124 16.9929343,10.7133431 16.9929343,8.98113869 C16.9929343,6.20560584 14.7347153,3.94738686 11.9591825,3.94738686 C9.18364964,3.94738686 6.92543066,6.20560584 6.92543066,8.98113869 C6.92543066,10.7142774 7.80566423,12.2455474 9.14277372,13.1512993 C8.12023358,13.5237956 7.1740146,14.0999708 6.35994161,14.8584526 C5.18113869,15.9563212 4.36268613,17.3559124 3.98312409,18.8922044 C2.37547445,17.0391241 1.40145985,14.622365 1.40145985,11.9825401 C1.40145985,6.16087591 6.13751825,1.42481752 11.9591825,1.42481752 C17.7805547,1.42481752 22.5169051,6.16087591 22.5169051,11.9825401 C22.5169051,14.6230657 21.5424234,17.0402336 19.9343066,18.8933139 Z" id="Fill-1" fill="#FFFFFF" mask="url(#mask-2)"></path>
                </g>
            </g>
        </g>
    </g>
</svg>