<?xml version="1.0" encoding="UTF-8"?>
<svg width="18px" height="18px" viewBox="0 0 18 18" version="1.1" xmlns="http://www.w3.org/2000/svg" xmlns:xlink="http://www.w3.org/1999/xlink">
    <!-- Generator: Sketch 58 (84663) - https://sketch.com -->
    <title>search</title>
    <desc>Created with Sketch.</desc>
    <g id="Developer-Test" stroke="none" stroke-width="1" fill="none" fill-rule="evenodd" fill-opacity="0.64">
        <g id="06-Accops-User-Listing" transform="translate(-1085.000000, -133.000000)" fill="#404443">
            <path d="M1102.99958,149.575624 L1097.68471,144.262429 C1098.56828,143.08433 1099.09776,141.628907 1099.09776,140.048878 C1099.09776,136.161737 1095.93434,133 1092.04888,133 C1088.16132,133 1085,136.161737 1085,140.048878 C1085,143.93476 1088.16132,147.097755 1092.04888,147.097755 C1093.62849,147.097755 1095.08391,146.568282 1096.26243,145.685127 L1101.57562,151 L1102.99958,149.575624 Z M1085.67212,140.048878 C1085.67212,136.531781 1088.53178,133.672121 1092.04888,133.672121 C1095.5643,133.672121 1098.42563,136.531781 1098.42563,140.048878 C1098.42563,143.564296 1095.5643,146.425635 1092.04888,146.425635 C1088.53178,146.425635 1085.67212,143.564296 1085.67212,140.048878 Z M1096.93749,145.114537 C1096.99832,145.057478 1097.05538,144.998322 1097.11454,144.937906 C1097.16362,144.886721 1097.21607,144.84099 1097.26348,144.788546 L1102.05098,149.575624 L1101.57562,150.050975 L1096.78855,145.263898 C1096.84099,145.216488 1096.88672,145.164044 1096.93749,145.114537 Z" id="search"></path>
        </g>
    </g>
</svg>