<?xml version="1.0" encoding="UTF-8"?>
<svg width="24px" height="24px" viewBox="0 0 24 24" version="1.1" xmlns="http://www.w3.org/2000/svg" xmlns:xlink="http://www.w3.org/1999/xlink">
    <!-- Generator: Sketch 58 (84663) - https://sketch.com -->
    <title>gear</title>
    <desc>Created with Sketch.</desc>
    <g id="Developer-Test" stroke="none" stroke-width="1" fill="none" fill-rule="evenodd">
        <g id="06-Accops-User-Listing" transform="translate(-500.000000, -23.000000)" fill="#FFFFFF">
            <g id="Menu" transform="translate(211.000000, 15.000000)">
                <g id="gear" transform="translate(289.000000, 8.000000)">
                    <path d="M23.4787857,9.7305 L20.5150714,9.4255 C20.3465714,8.86721429 20.125,8.332 19.8537857,7.827 L21.7382857,5.50392857 C21.911,5.29071429 21.8947857,4.98185714 21.7008571,4.78792857 L19.2277143,2.315 C19.0335,2.12078571 18.7243571,2.1055 18.5114286,2.27842857 L16.1877857,4.16464286 C15.6810714,3.89285714 15.1459286,3.67464286 14.5895714,3.50642857 L14.2845714,0.536857143 C14.2567143,0.263428571 14.0265,0.0683571429 13.7516429,0.0683571429 L13.7511429,0.0683571429 L10.2516429,0.0591428571 C9.97742857,0.0594285714 9.7475,0.254214286 9.71928571,0.527071429 L9.41128571,3.49971429 C8.85292857,3.6685 8.3175,3.88978571 7.8125,4.161 L5.48942857,2.27678571 C5.27621429,2.10407143 4.96735714,2.12028571 4.77314286,2.31414286 L2.30021429,4.78735714 C2.10628571,4.98128571 2.09092857,5.29042857 2.26364286,5.50364286 L4.14957143,7.82728571 C3.87778571,8.33428571 3.65928571,8.86942857 3.49107143,9.42607143 L0.524,9.73378571 C0.250857143,9.76228571 0.055,9.99221429 0.055,10.2667143 L0.055,13.7628571 C0.055,14.0373571 0.250857143,14.2675714 0.524,14.2957857 L3.48521429,14.6037857 C3.65342857,15.1598571 3.875,15.6952857 4.14678571,16.2022857 L2.26228571,18.5256429 C2.08957143,18.7388571 2.1055,19.048 2.29964286,19.2419286 L4.77285714,21.7151429 C4.96678571,21.9090714 5.27592857,21.9246429 5.48914286,21.7519286 L7.81221429,19.8669286 C8.3175,20.1381429 8.85292857,20.3577143 9.41128571,20.5265 L9.71928571,23.4960714 C9.7475,23.769 9.97742857,23.9701429 10.2516429,23.9704286 L13.7511429,23.9612143 L13.7516429,23.9612143 C14.0265,23.9612143 14.2567143,23.7659286 14.2845714,23.4927143 L14.5895714,20.5295714 C15.1459286,20.3613571 15.6810714,20.1397857 16.1877857,19.8682857 L18.5111429,21.7525 C18.7240714,21.9255 19.0332143,21.9092857 19.2271429,21.7154286 L21.7000714,19.2422143 C21.8942857,19.048 21.9092857,18.7388571 21.7365714,18.5259286 L19.851,16.2025714 C20.1222143,15.6975714 20.3404286,15.1623571 20.5089286,14.6040714 L23.4787857,14.2991429 C23.7522143,14.2712143 23.9478571,14.041 23.9478571,13.7662143 L23.9478571,10.2634286 C23.9478571,9.98857143 23.7522143,9.75835714 23.4787857,9.7305 Z M22.8764286,13.2826429 L20.0307143,13.5753571 C19.8077857,13.5982143 19.6345,13.7577857 19.5787143,13.9751429 C19.3947857,14.6905714 19.1152143,15.3657857 18.7477857,15.9824286 C18.6327857,16.1755 18.6503571,16.4196429 18.7918571,16.594 L20.6018571,18.8258571 L18.8113571,20.6166429 L16.5795,18.8066429 C16.4054286,18.6651429 16.1615714,18.6472857 15.9685,18.762 C15.3479286,19.1308571 14.6724286,19.4104286 13.9606429,19.5932143 C13.7432857,19.649 13.5837143,19.8342857 13.5608571,20.0575 L13.2681429,22.9146429 L10.7352143,22.9121429 L10.4394286,20.0569286 C10.4165714,19.834 10.257,19.649 10.0399286,19.5932143 C9.32478571,19.4095714 8.64928571,19.13 8.03264286,18.7625714 C7.83985714,18.6472857 7.59571429,18.6649286 7.42107143,18.8066429 L5.18942857,20.6166429 L3.39928571,18.8258571 L5.20985714,16.594 C5.35128571,16.4199286 5.37057143,16.1760714 5.25585714,15.9832857 C4.887,15.3621429 4.61021429,14.6866429 4.42771429,13.9751429 C4.37192857,13.7580714 4.1925,13.5987857 3.96957143,13.5756429 L1.12642857,13.2798571 L1.12642857,10.75 L3.96957143,10.4542143 C4.1925,10.4310714 4.36607143,10.2717857 4.42185714,10.0547143 C4.60464286,9.34292857 4.88421429,8.66742857 5.25307143,8.04657143 C5.3675,7.85378571 5.34985714,7.60992857 5.20842857,7.43557143 L3.39842857,5.20371429 L5.18914286,3.41321429 L7.42107143,5.22321429 C7.59542857,5.36464286 7.83957143,5.38228571 8.03264286,5.26728571 C8.64928571,4.89985714 9.32478571,4.62028571 10.0399286,4.43664286 C10.257,4.38085714 10.4162857,4.19585714 10.4394286,3.97292857 L10.7352143,1.1175 L13.2681429,1.11521429 L13.5608571,3.97235714 C13.5837143,4.19557143 13.743,4.38085714 13.9603571,4.43664286 C14.6718571,4.61942857 15.3476429,4.899 15.9685,5.26785714 C16.1612857,5.3825 16.4051429,5.36464286 16.5792143,5.22321429 L18.8108571,3.41321429 L20.601,5.20371429 L18.7901429,7.43557143 C18.6487143,7.61021429 18.6297143,7.85435714 18.7447143,8.04742857 C19.1121429,8.66378571 19.3886429,9.33928571 19.5722857,10.0547143 C19.6280714,10.2720714 19.8075,10.4313571 20.0307143,10.4542143 L22.8764286,10.7469286 L22.8764286,13.2826429 Z" id="Fill-1"></path>
                    <path d="M10.6135714,8.88057143 C9.84821429,9.64592857 9.84821429,10.8909286 10.6135714,11.6562857 C11.2360714,12.2787143 12.0052857,12.2302143 12,12.2290714 C12.5248571,12.2290714 13.0178571,12.0253571 13.3878571,11.6551429 C14.1526429,10.8903571 14.1526429,9.64621429 13.3878571,8.88171429 C12.6235714,8.11721429 11.3794286,8.11464286 10.6135714,8.88057143 Z M12.6305714,10.8975714 C12.2832143,11.2447143 11.7170714,11.2444286 11.3710714,10.8984286 C11.0237143,10.5510714 11.0237143,9.98578571 11.3710714,9.63814286 C11.7170714,9.29242857 12.2832143,9.29214286 12.6302857,9.63921429 C12.9774286,9.98607143 12.9774286,10.5507857 12.6305714,10.8975714 Z" id="Fill-2"></path>
                    <path d="M11.9988571,5.8895 C8.60292857,5.8895 5.87642857,8.62357143 5.87642857,12.0105714 C5.87642857,15.358 8.55107143,18.1219286 11.9988571,18.1219286 C15.4497857,18.1219286 18.125,15.3549286 18.125,12.0145 C18.125,8.61635714 15.3875714,5.8895 11.9988571,5.8895 Z M8.69728571,15.8448571 C8.697,15.8448571 8.697,15.8445714 8.69671429,15.8445714 C10.2340714,13.4277143 13.7745714,13.4422143 15.3041429,15.8437143 C13.327,17.5089286 10.5577857,17.4531429 8.69728571,15.8448571 Z M16.0535714,15.0404286 C14.0686429,12.2759286 9.93328571,12.2722857 7.94757143,15.0401429 C6.50142857,13.1062857 6.59264286,10.2700714 8.42607143,8.43664286 C10.3853571,6.47742857 13.5973571,6.45957143 15.5784286,8.44085714 C17.3867143,10.2491429 17.5197857,13.0817857 16.0535714,15.0404286 Z" id="Fill-3"></path>
                </g>
            </g>
        </g>
    </g>
</svg>